<svg xmlns="http://www.w3.org/2000/svg" viewBox="0 0 400 260" fill="none">
  <rect width="400" height="260" rx="16" fill="#0f172a"/>
  <rect x="20" y="20" width="360" height="220" rx="12" fill="#1e293b" stroke="#0d9488" stroke-width="2" opacity="0.6"/>
  <circle cx="100" cy="90" r="28" fill="#0d9488" opacity="0.15" stroke="#0d9488" stroke-width="2"/>
  <path d="M100 78v24M88 90h24M95 82l15 16M105 82l-15 16" stroke="#0d9488" stroke-width="2" stroke-linecap="round"/>
  <circle cx="200" cy="90" r="28" fill="#0d9488" opacity="0.15" stroke="#0d9488" stroke-width="2"/>
  <path d="M200 78v24M188 90h24M195 82l15 16M205 82l-15 16" stroke="#0d9488" stroke-width="2" stroke-linecap="round"/>
  <circle cx="300" cy="90" r="28" fill="#0d9488" opacity="0.15" stroke="#0d9488" stroke-width="2"/>
  <path d="M300 78v24M288 90h24M295 82l15 16M305 82l-15 16" stroke="#0d9488" stroke-width="2" stroke-linecap="round"/>
  <rect x="40" y="140" width="320" height="12" rx="4" fill="#334155"/>
  <rect x="40" y="160" width="280" height="8" rx="4" fill="#334155"/>
  <rect x="40" y="176" width="240" height="8" rx="4" fill="#334155"/>
  <rect x="40" y="192" width="200" height="8" rx="4" fill="#334155"/>
  <rect x="40" y="215" width="80" height="16" rx="4" fill="#0d9488" opacity="0.6"/>
</svg>
